# xmcd
# 
# Track frame offsets:
#     150
#     20145
#     35194
#     54599
#     71032
#     82172
#     96326
#     113946
#     129975
#     148635
# 
# Disc length: 2165
# 
# Revision: 2
# Processed by: cddbd v1.5.2PL0 Copyright (c) Steve Scherf et al.
# Submitted via: fre:ac v1.0.31
# 
DISCID=9808730a
DTITLE=Allison Moorer - Blood
DYEAR=2019
DGENRE=Rock/Pop
TTITLE0=Bad Weather
TTITLE1=Cold Cold Earth
TTITLE2=Nightlight
TTITLE3=The Rock And The Hill
TTITLE4=I'm The One To Blame
TTITLE5=Set My Soul Free
TTITLE6=The Ties That Bind
TTITLE7=All I Wanted (Thanks Anyway)
TTITLE8=Blood
TTITLE9=Heal
EXTD=
EXTT0=
EXTT1=
EXTT2=
EXTT3=
EXTT4=
EXTT5=
EXTT6=
EXTT7=
EXTT8=
EXTT9=
PLAYORDER=
